<svg width="68" height="68" viewBox="0 0 68 68" fill="none" xmlns="http://www.w3.org/2000/svg">
<path d="M39.6667 5.66667H17C15.4971 5.66667 14.0558 6.26369 12.9931 7.3264C11.9304 8.38911 11.3334 9.83044 11.3334 11.3333V56.6667C11.3334 58.1696 11.9304 59.6109 12.9931 60.6736C14.0558 61.7363 15.4971 62.3333 17 62.3333H51C52.5029 62.3333 53.9443 61.7363 55.007 60.6736C56.0697 59.6109 56.6667 58.1696 56.6667 56.6667V22.6667L39.6667 5.66667Z" fill="white"/>
<path d="M39.6667 5.66667V22.6667H56.6667" fill="white"/>
<path d="M28.3334 25.5H22.6667Z" fill="white"/>
<path d="M39.6667 5.66667H17C15.4971 5.66667 14.0558 6.26369 12.9931 7.3264C11.9304 8.38911 11.3334 9.83044 11.3334 11.3333V56.6667C11.3334 58.1696 11.9304 59.6109 12.9931 60.6736C14.0558 61.7363 15.4971 62.3333 17 62.3333H51C52.5029 62.3333 53.9443 61.7363 55.007 60.6736C56.0697 59.6109 56.6667 58.1696 56.6667 56.6667V22.6667M39.6667 5.66667L56.6667 22.6667M39.6667 5.66667V22.6667H56.6667M45.3334 36.8333H22.6667M45.3334 48.1667H22.6667M28.3334 25.5H22.6667" stroke="#101828" stroke-width="2" stroke-linecap="round" stroke-linejoin="round"/>
</svg>
