<svg width="28" height="28" viewBox="0 0 28 28" fill="none" xmlns="http://www.w3.org/2000/svg">
<circle cx="14" cy="14" r="14" fill="#D6D6D6"/>
<path fill-rule="evenodd" clip-rule="evenodd" d="M12.4507 7.07258C12.5367 6.98667 12.676 6.98667 12.7619 7.07258L17.6555 11.9662C17.6555 11.9662 17.6555 11.9663 17.6556 11.9663L19.5337 13.8444C19.6196 13.9304 19.6196 14.0697 19.5337 14.1556L17.6556 16.0337C17.6555 16.0338 17.6555 16.0338 17.6554 16.0339L12.7619 20.9274C12.676 21.0133 12.5367 21.0133 12.4507 20.9274L10.5726 19.0493C10.4867 18.9633 10.4867 18.8241 10.5726 18.7381L15.3107 14L10.5726 9.26187C10.4867 9.17595 10.4867 9.03666 10.5726 8.95074L12.4507 7.07258Z" fill="white"/>
</svg>
