<svg width="28" height="28" viewBox="0 0 28 28" fill="none" xmlns="http://www.w3.org/2000/svg">
<circle cx="14" cy="14" r="14" fill="#D6D6D6"/>
<path fill-rule="evenodd" clip-rule="evenodd" d="M15.6556 7.07258C15.5697 6.98667 15.4304 6.98667 15.3444 7.07258L10.451 11.966C10.4509 11.9661 10.4508 11.9662 10.4507 11.9663L8.57258 13.8444C8.50815 13.9089 8.49204 14.0033 8.52426 14.0828C8.535 14.1093 8.55111 14.1341 8.57258 14.1556L10.4507 16.0337C10.4508 16.0338 10.4509 16.0339 10.451 16.034L15.3444 20.9274C15.4304 21.0133 15.5697 21.0133 15.6556 20.9274L17.5337 19.0493C17.6196 18.9633 17.6196 18.8241 17.5337 18.7381L12.7956 14L17.5337 9.26187C17.6196 9.17595 17.6196 9.03666 17.5337 8.95074L15.6556 7.07258Z" fill="white"/>
</svg>
